<?xml version="1.0" encoding="UTF-8" standalone="no"?>
<svg
   xmlns:dc="http://purl.org/dc/elements/1.1/"
   xmlns:cc="http://creativecommons.org/ns#"
   xmlns:rdf="http://www.w3.org/1999/02/22-rdf-syntax-ns#"
   xmlns:svg="http://www.w3.org/2000/svg"
   xmlns="http://www.w3.org/2000/svg"
   xmlns:sodipodi="http://sodipodi.sourceforge.net/DTD/sodipodi-0.dtd"
   xmlns:inkscape="http://www.inkscape.org/namespaces/inkscape"
   version="1.1"
   id="svg2"
   xml:space="preserve"
   width="344.72"
   height="154.45332"
   viewBox="0 0 344.72 154.45332"
   sodipodi:docname="AA_DB_Sargent_K (1).eps"><metadata
     id="metadata8"><rdf:RDF><cc:Work
         rdf:about=""><dc:format>image/svg+xml</dc:format><dc:type
           rdf:resource="http://purl.org/dc/dcmitype/StillImage" /></cc:Work></rdf:RDF></metadata><defs
     id="defs6" /><sodipodi:namedview
     pagecolor="#ffffff"
     bordercolor="#666666"
     borderopacity="1"
     objecttolerance="10"
     gridtolerance="10"
     guidetolerance="10"
     inkscape:pageopacity="0"
     inkscape:pageshadow="2"
     inkscape:window-width="640"
     inkscape:window-height="480"
     id="namedview4" /><g
     id="g10"
     inkscape:groupmode="layer"
     inkscape:label="ink_ext_XXXXXX"
     transform="matrix(1.3333333,0,0,-1.3333333,0,154.45333)"><g
       id="g12"
       transform="scale(0.1)"><path
         d="m 0,634.398 c 0,0 0,-68.886 0,-86.074 0,-22.812 15.2773,-20.039 19.9414,-20.039 226.4726,0 2526.4986,-0.012 2545.2486,-0.012 0,-16.054 0,-86.121 0,-86.121 h 20 v 85.86 c 0,0 3.44,20.261 -20.31,20.261 -228.77,0 -2526.1417,0.012 -2544.88,0.012 0,16.055 0,86.113 0,86.113 H 0"
         style="fill:#231f20;fill-opacity:1;fill-rule:nonzero;stroke:none"
         id="path14" /><path
         d="m 2409.34,321.027 -72.81,-123.535 -73.42,123.535 h -77.79 L 2300.83,129.922 V 7.42188 h 69 l -0.02,120.76912 116.41,192.856 z M 2079.77,58.1406 c -61.97,0 -85.21,52.6994 -85.29,104.9684 -0.08,54.891 23.14,107.598 85.17,107.637 61.98,0 85.22,-52.648 85.34,-107.473 0.05,-52.402 -23.31,-105.0425 -85.22,-105.1324 z m -0.18,270.5354 c -97.03,0.058 -154.17,-72.363 -154.1,-165.567 0.08,-36.597 9.55,-70.1207 27.07,-97.2106 H 1835.67 L 1835.59,321 1766.7,320.988 1766.72,7.37891 h 200.1 V 47.1289 c 26.37,-29.0586 64.73,-46.937494 112.97,-46.8789 97.05,0 154.12,72.4883 154.02,162.957 0.04,93.164 -57.16,165.625 -154.22,165.469 z m -442.87,-267.5276 -73.82,-0.0195 -0.06,86.1011 75.13,0.02 c 29.4,0.039 49.69,-12.762 49.61,-44.828 0,-32.5314 -23.75,-41.2814 -50.86,-41.2736 z m -73.9,206.4726 h 64.51 c 24.55,-0.058 47.46,-6.172 47.54,-36.035 -0.04,-26.418 -18.13,-37.441 -42.11,-37.383 l -69.92,-0.031 z m -254.95,-139.043 40.9,115.117 h 0.88 l 39.57,-115.117 z m 391.08,49.356 c 27.29,13.211 42.62,34.765 42.7,65.527 -0.08,58.359 -40.49,77.723 -100.32,77.5 l -147.58,-0.012 0.14,-290.3201 -108.71,290.3791 -70.83,0.012 L 1195.42,7.35156 h 69.94 l 24.52,69.83984 h 117.37 l 23.69,-69.76952 71.66,0.02734 -0.04,-0.02734 143.4,-0.05079 c 56.62,0.12891 110.59,27.50781 110.65,91.18751 -0.06,39.1014 -19.42,68.4764 -57.66,79.3754 z m -750.86,-49.055 40.89,115.059 h 0.848 L 1029.49,128.922 Z M 743.152,53.6914 C 706.332,53.6289 673.824,69.9102 673.707,111.5 l -45.703,0.059 c -6.832,61.675 -70.82,74.937 -92.52,80.367 -78.488,20.176 -93.48,23.312 -93.527,47.383 0.106,26.406 25.492,35.644 47.438,35.586 33,-0.008 59.691,-9.559 61.972,-47.325 h 66.5 c 3.262,-53.945 48.348,-71.211 93.223,-82.961 46.172,-12.269 93.207,-17.961 93.223,-51.8004 -0.016,-32.0391 -36.868,-39.0898 -61.161,-39.1172 z m -533.254,74.9566 40.86,115.016 h 0.918 L 291.215,128.629 Z M 954.652,321.078 871.023,100.68 c -0.117,71.207 -70.293,85.699 -93.168,91.304 -78.625,20.293 -93.546,23.184 -93.578,47.473 0.032,26.395 25.508,35.574 47.438,35.547 33.027,0.027 59.765,-9.609 61.996,-47.356 h 66.758 c -0.086,72.5 -60.239,100.977 -125.633,100.957 -56.02,0.051 -115.652,-30.027 -117.156,-92.441 -4.688,66.055 -62.446,92.375 -125.336,92.305 -56.528,0.019 -117.141,-30.809 -117.102,-94.864 0,-58.945 47.008,-76.855 93.559,-89.136 46.16,-12.321 93.148,-17.989 93.094,-51.7893 0.031,-32.0508 -36.821,-39.0508 -60.942,-39.1484 -36.965,-0.043 -69.39,16.2695 -69.449,57.9687 H 365.582 L 287.066,321.027 H 216.453 L 97.6211,7.41016 h 69.7659 l 24.578,69.80074 117.371,0.0274 23.687,-69.82814 h 71.543 L 393.563,36.7305 C 418.855,11.6719 457.73,-0.0703125 498.285,0 561.063,-0.0507813 602.109,23.4297 619.355,58.8008 641.309,18.5195 689.746,0.0507813 740.691,0.109375 c 49.243,0 85.016,14.468725 106.532,37.742225 L 835.746,7.44922 h 69.836 l 24.578,70.06248 117.34,0.0196 23.75,-70.17192 71.64,0.01171 -117.45,313.70691 h -70.788"
         style="fill:#231f20;fill-opacity:1;fill-rule:nonzero;stroke:none"
         id="path16" /><path
         d="m 2442.32,983.254 h 6.12 c 5.2,0 10,0.273 10,6.758 0,5.332 -4.39,6.25 -8.36,6.25 h -7.76 z m -5.88,18.186 h 14.66 c 9.02,0 13.22,-3.948 13.22,-11.741 0,-7.402 -4.33,-10.457 -9.94,-11.101 l 10.85,-18.028 h -6.43 l -10.28,17.586 h -6.2 V 960.57 h -5.88 z m 12.65,-50.413 c 14.96,0 26.55,12.961 26.55,30.078 0,16.758 -11.59,29.625 -26.55,29.625 -15.16,0 -26.85,-12.867 -26.85,-29.625 0,-17.117 11.69,-30.078 26.85,-30.078 z m 0,64.863 c 17.6,0 32.4,-15.02 32.4,-34.785 0,-20.125 -14.8,-35.183 -32.4,-35.183 -17.72,0 -32.7,15.058 -32.7,35.183 0,19.765 14.98,34.785 32.7,34.785"
         style="fill:#231f20;fill-opacity:1;fill-rule:nonzero;stroke:none"
         id="path18" /><path
         d="m 208.188,888.176 c 0,-9.903 1.519,-18.711 4.109,-25.879 8.137,-23.692 32.586,-28.621 53.492,-28.621 18.348,0 46.352,6.629 46.352,35.789 0,20.351 -15.77,25.832 -78.457,45.137 -57.586,17.578 -123.336,34.687 -123.336,113.888 0,90.83 71.863,129.96 146.793,129.96 78.968,0 148.8,-32.55 151.859,-128.27 H 302.992 c 2.031,14.89 -4.09,24.78 -13.265,31.39 -9.168,7.13 -21.934,9.88 -33.133,9.88 -15.266,0 -40.262,-4.39 -40.262,-26.38 2.027,-28.09 54.02,-34.16 105.531,-49.57 51.465,-15.391 102.43,-41.27 102.43,-113.348 0,-102.375 -87.141,-135.48 -168.203,-135.48 -41.262,0 -159.008,16.016 -160.0353,141.504 H 208.188"
         style="fill:#231f20;fill-opacity:1;fill-rule:nonzero;stroke:none"
         id="path20" /><path
         d="m 627.145,896.398 -32.614,121.132 h -1.039 L 558.328,896.398 Z M 538.953,1149.04 H 648.531 L 781.035,756.066 H 664.844 l -15.313,56.153 H 533.844 L 517.551,756.066 H 404.922 l 134.031,392.974"
         style="fill:#231f20;fill-opacity:1;fill-rule:nonzero;stroke:none"
         id="path22" /><path
         d="m 902.844,977.375 h 58.586 c 20.898,0 49.46,3.828 49.46,39.025 0,24.78 -12.738,39.12 -55.577,39.12 H 902.844 Z M 790.699,1149.04 h 213.561 c 63.7,0 118.74,-37.92 118.74,-112.29 0,-40.723 -17.31,-83.613 -54.53,-98.496 30.55,-12.645 49.45,-48.984 53.52,-97.949 1.53,-19.278 2.03,-66.055 12.2,-84.239 h -112.08 c -5.61,19.825 -7.66,40.188 -9.19,60.586 -3.06,37.383 -6.12,76.457 -50.463,76.457 H 902.844 V 756.066 H 790.699 v 392.974"
         style="fill:#231f20;fill-opacity:1;fill-rule:nonzero;stroke:none"
         id="path24" /><path
         d="m 1405.36,796.254 c -25.02,-34.699 -63.73,-49.582 -103.48,-49.582 -107.51,0 -173.8,90.293 -173.8,202.07 0,149.678 97.35,209.708 179.41,209.708 92.74,0 151.35,-54.51 167.69,-146.98 h -107.55 c -4.1,28.62 -26.51,48.97 -53.02,48.97 -76.93,0 -74.38,-87.499 -74.38,-114.471 0,-36.883 13.77,-101.289 82.05,-101.289 26.02,0 52.48,14.316 58.06,43.496 h -49.39 v 84.219 h 148.8 V 756.066 h -70.85 l -3.54,40.188"
         style="fill:#231f20;fill-opacity:1;fill-rule:nonzero;stroke:none"
         id="path26" /><path
         d="m 1497.55,1149.04 h 301.18 v -100.69 h -189.08 v -48.983 h 171.77 V 905.793 H 1609.65 V 856.77 h 194.73 V 756.066 h -306.83 v 392.974"
         style="fill:#231f20;fill-opacity:1;fill-rule:nonzero;stroke:none"
         id="path28" /><path
         d="m 1823.09,1149.04 h 114.71 l 105.99,-210.239 h 1.05 v 210.239 h 105.99 V 756.066 h -109.1 l -111.64,214.629 h -1.01 V 756.066 h -105.99 v 392.974"
         style="fill:#231f20;fill-opacity:1;fill-rule:nonzero;stroke:none"
         id="path30" /><path
         d="m 2272.9,1048.35 h -101.98 v 100.69 h 316.04 V 1048.35 H 2385 V 756.066 h -112.1 v 292.284"
         style="fill:#231f20;fill-opacity:1;fill-rule:nonzero;stroke:none"
         id="path32" /></g></g></svg>
